# xmcd
#
# Track frame offsets: 
#        150
#        1613
#        22971
#        36245
#        42724
#        63635
#        80657
#        84728
#        118031
#        137497
#        154208
#        180604
#        221073
#        252230
#        269690
#        301315
#
# Disc length: 4375 seconds
#
# Revision: 0
# Processed by: cddbd v1.5.2PL0 Copyright (c) Steve Scherf et al.
# Submitted via: ExactAudioCopy v0.95b4
#
DISCID=e0111510
DTITLE=Alaska - 2000-10-21 - Dew Drop Inn - York PA - Disc 1
DYEAR=2000
DGENRE=Progressive Rock
TTITLE0=Prelude
TTITLE1=The Weight
TTITLE2=Squeeze Box
TTITLE3=Band Discussion
TTITLE4=Lawyers, Guns And Money
TTITLE5=Ziggy Stardust
TTITLE6=The Fish
TTITLE7=Werewolves Of London
TTITLE8=Everything You Want
TTITLE9=Behind Blue Eyes
TTITLE10=Pretzel Logic
TTITLE11=Kashmir
TTITLE12=Little Wing
TTITLE13=Steppin' Out
TTITLE14=More Joe, No Cow
TTITLE15=New York State Of Mind
EXTD=
EXTT0=
EXTT1=
EXTT2=
EXTT3=
EXTT4=
EXTT5=
EXTT6=
EXTT7=
EXTT8=
EXTT9=
EXTT10=
EXTT11=
EXTT12=
EXTT13=
EXTT14=
EXTT15=
PLAYORDER=
